<svg width="599" height="554" viewBox="0 0 599 554" fill="none" xmlns="http://www.w3.org/2000/svg">
<path d="M537 268.5C537 416.788 416.788 537 268.5 537C120.212 537 0 416.788 0 268.5C0 120.212 120.212 0 268.5 0C416.788 0 537 120.212 537 268.5Z" fill="black"/>
<path d="M51.2036 341.862C47.0705 309.142 79.5778 283.999 110.208 296.225L211.196 336.533C250.093 352.059 294.468 343.557 324.872 314.753L408.994 235.058C496.613 152.051 635.483 247.28 589.621 358.922L538.213 484.068C512.968 545.523 440.082 571.619 381.568 540.152L73.6525 374.568C61.3215 367.937 52.9582 355.753 51.2036 341.862Z" fill="#D9D9D9"/>
</svg>
