<svg id="Layer_1" data-name="Layer 1" xmlns="http://www.w3.org/2000/svg" viewBox="0 0 863.11 533.39"><defs><style>.cls-1{fill:#443548;stroke:#443548;stroke-miterlimit:10;}</style></defs><path class="cls-1" d="M862.54,482.89a27.5,27.5,0,0,0-8-14.4,55.35,55.35,0,0,0-8.9-6.8,54.18,54.18,0,0,1-5.8-4.2,11.12,11.12,0,0,1-2.5-3.4c-8.8-15.9-8.3-35.5-7.8-54.3.1-2.8.1-5.5.2-8.2.4-26.8,4.2-54.3,11.6-84.2,5.9-23.8,3.5-50.9.4-69.4a150.34,150.34,0,0,0-18.1-51.8,88,88,0,0,0-16.6-21c-5.4-4.9-11.5-10.6-15.5-17.2-9.2-15.6-15.1-36.4-17.6-61.7-.8-8-.2-13.8,4.9-17.9a14.46,14.46,0,0,1,12.2-2.7c4.2,1,7.9,3.7,11.9,6.6,1,.7,2,1.5,3.1,2.2,12.1,8.5,24.9,8.5,34.3.2a21.54,21.54,0,0,0,7.6-16.3c.1-15-14.2-29-18.5-33A75.32,75.32,0,0,0,753,9.89c-38.9,13.9-59.5,55.8-48.1,97.3l.1.4,4.7,12.3c-37.1-5.7-78.5-3.2-123.4,7.6l-.8-.1a13,13,0,0,0-1.7-.8,5.38,5.38,0,0,0-3.3-.3,169.18,169.18,0,0,0-43.1-12.2l-4.4-3.5c-.4-.5-.7-.9-.8-1a5.52,5.52,0,0,0-1.7-1.4c-4.2-5.1-17.7-18.5-44.8-21.5l-33.9-26.2-.2-.2c-.9-.6-22.3-15.1-38.9-11.4a20.81,20.81,0,0,0-13.9,10.3c-3.7,6.3-3.8,14.6-.5,24.6l3.3,14.5c-5.8,2.9-17.5,9.8-30.6,22.5a137.23,137.23,0,0,0-9.6-35.7c-.6-1.6-7.2-17.2-20.6-34.7-18.4-24-41.2-40-65.9-46.4-3.8-1.5-34.6-11.9-81.7,8.4-3.6,1.1-35.2,10.9-65.1,31.8-41.1,28.9-59,64.8-52.3,104.2a158.35,158.35,0,0,0-37.3,36.3c-16.9,23-35.2,61.4-27.7,114.7a5,5,0,0,0-.4,3.2,110.72,110.72,0,0,0-7.6,23.6c-.3,1.4-.6,2.9-.8,3.4-3.6,8.8-1.5,43.4-.7,49.6A142.07,142.07,0,0,0,6,401.39a165.92,165.92,0,0,0,5.6,15.9c.8,2,1.9,4.4,3.1,6.8l.1.1.2.4c18.6,29,57.4,51.9,115.1,68a511.22,511.22,0,0,0,79,15.3c13,12,29,10.6,38.2,7.4,10.6,10.5,26.3,5.6,35,.5,8.7,1.9,18.1-.4,18.6-.5l.6-.2c10.3-4,16.7-10.3,19.3-18.9,5.1-17.4-8.8-37.4-10-39-9.1-13.4-25.4-19.9-34.4-22.6,10.8-13.1,45.4-13.4,60.8-12.1,27.3,24.4,67.8,32.7,75.8,34.1,17,13.8,33.5,10.6,40.3,8.3,10.9,9.3,25.9,4.4,33.8-.4a24,24,0,0,0,7.3-1.1c11.1-3.2,19.5-13,21.5-24.9,3.7-22.6-13.4-36.5-23.1-40.8l-43.7-23.3-.6-.3c-41.5-15.6-82.1-66-93.9-81.6,5.5-2.8,9.4-5.3,10.7-6.1,10.7-4.5,17.5-10.2,20.3-17.1a64,64,0,0,0,17,12.3c-1.4,10.8-.8,22.8,4.4,34.8a4.89,4.89,0,0,0,4.4,2.9,4.33,4.33,0,0,0,1.9-.4,4.8,4.8,0,0,0,2.5-6.3,53.5,53.5,0,0,1-3.9-27.2,65.65,65.65,0,0,0,26.5,2.8,61.52,61.52,0,0,0,12,16.1c19.8,28.3,56.1,81.6,72.4,105.6,7.6,11.6,17.5,29,15.8,46.5a31,31,0,0,1-3.2,11.3c-1.6,2.9-4,5.2-6.9,7.7a59.53,59.53,0,0,0-5.1,5c-1.3,1.5-2.6,3.1-3.8,4.6-3.9,5.2-6.1,9.9-6.9,14.7-1.5,9,2,14,5.2,16.7,5.7,4.8,14,5,20.8,3.5,3.5,6.4,8.2,10.6,14.2,12.5a24.67,24.67,0,0,0,7,1,34.55,34.55,0,0,0,15.6-4.2c26.6,2.5,37.9-7.8,42.6-18.4,19.6,1,48.1-11.7,54-14.5,25.7-.3,37.6-33.3,38.1-34.8l30.8-88.9c4.2,6,12.6,20.6,28,56.2,10.5,24.2,19.8,48.1,22.5,54.9-3.7,8.1-4.1,15-.9,20.5,3.9,6.7,11.5,8.7,15.6,9.4,8.3,10.8,23,7.6,30.7,3.8a27.7,27.7,0,0,0,19.8-10.3A29.47,29.47,0,0,0,862.54,482.89ZM756.24,19.19a65.56,65.56,0,0,1,21.2-3.9,68,68,0,0,1,45.5,17.4c7.1,6.4,15.4,17,15.3,25.8a11.5,11.5,0,0,1-4.3,9.1c-8.4,7.4-18.4,1.8-22.4-.9-1-.7-1.9-1.4-2.9-2.1-4.6-3.4-9.4-6.9-15.5-8.3a24.17,24.17,0,0,0-20.3,4.6c-9.1,7.2-9.4,17.4-8.6,26.4,2.2,22.4,6.8,41,14.1,56.4-16.9-9.8-36.2-17-57.6-21.4l-6.7-17.6C704.14,68.09,722.24,31.39,756.24,19.19Zm-393.6,257.9c-16.9-2.1-18.3-13.5-18.4-14.9a4.81,4.81,0,0,0-9.6.5c.3,5.8,4.3,15.9,16.1,21.1-1.6.8-3.2,1.6-5.1,2.4a6,6,0,0,0-2.2.4c-12.4,5-30,9.1-43.9-.1-16-10.6-24.4-36.4-24.9-76.6a5.25,5.25,0,0,0-5.3-5.2h-.1a5.21,5.21,0,0,0-5.2,5.4c.3,21.1,2.8,38.5,7.3,52.5-38.4-6.5-38.2-50.5-38.2-52.5a4.74,4.74,0,0,0-4.7-4.9,4.8,4.8,0,0,0-4.9,4.7,82.5,82.5,0,0,0,5.9,29.7c5.8,14,18.5,31,45.9,33.2,4.7,9.9,10.7,17.5,18.3,22.6a44.76,44.76,0,0,0,25.4,7.3c8.3,0,17.5-1.9,27.1-5.7,10.7,14.4,53.2,68.8,99,86.1l43.6,23.2.3.2c.2.1,21.1,9.4,17.6,30.5a21.62,21.62,0,0,1-13.4,16.8c2.2-11.5-5.4-21.2-10.3-24.4s-7.7.3-8,.7a4.7,4.7,0,0,0,1.1,6.7,5.17,5.17,0,0,0,1.9.8,18.08,18.08,0,0,1,5.6,8.6,13.24,13.24,0,0,1-1.5,10.2c-3.4,2-12.9,6.6-20.2,2.6a15.93,15.93,0,0,0,1.9-4.2c2.5-10.1-5.7-23.1-6.6-24.5a4.93,4.93,0,0,0-6.7-1.4,4.82,4.82,0,0,0-1.4,6.7c2.7,4.1,6.5,12.3,5.3,16.9a3.66,3.66,0,0,1-2.1,2.6h-.1c-2.1,1-17.6,7.2-33.9-6.7a4.42,4.42,0,0,0-2.4-1.1c-.5-.1-45.8-7.6-73.3-33a5.17,5.17,0,0,0-2.8-1.3,182.27,182.27,0,0,0-32.8.2c-20.8,2.2-34.3,8.4-40.2,18.3l-96.5-24.8a5.26,5.26,0,0,0-2.6,10.2L268,442.69a5.85,5.85,0,0,0,1.3.2c.3,0,.6-.1.9-.1,5.7,1.4,23.9,6.8,32.7,19.8l.1.1c.1.2,12.5,17.5,8.6,30.7-1.6,5.5-6,9.6-13.2,12.5a45.65,45.65,0,0,1-8.6.9c6.4-14.3-2-31.3-2.4-32.2a4.83,4.83,0,0,0-8.6,4.4,41,41,0,0,1,3.4,10.7c1.2,7.3-.1,13-3.8,17.1-2.6,1.6-14.7,8.5-22.9,2.6,9.2-11.8,5.6-30.6,5.4-31.4a4.84,4.84,0,0,0-9.5,1.9,45.62,45.62,0,0,1,.6,10.8c-.3,4.7-1.7,11-6,14.7-3,1.3-18.6,7.2-31.4-5.5a4.7,4.7,0,0,0-3-1.4c-1.5-.1-146.7-14.4-188.5-78.9a59.61,59.61,0,0,1-2.7-6,145.94,145.94,0,0,1-5.3-14.9,134.48,134.48,0,0,1-4.4-20.7c-1.3-10.1-2-39.5.1-44.7a31.43,31.43,0,0,0,1.3-5,95.69,95.69,0,0,1,6.9-21.4,5.88,5.88,0,0,0,2.1-2.3c11.7-23.2,33.6-39.4,65.2-48.3a5.76,5.76,0,1,0-3.1-11.1c-28.7,8-50.1,21.9-64.2,41.1-2.6-35.4,6.5-67.5,27-95.5A149.88,149.88,0,0,1,77.64,159c4.2,17.3,14.7,59.1,22.6,70.8a29.25,29.25,0,0,0,14.2,16.6c5.3,2.8,11.4,4.1,18.5,4.1,9.8,0,21.4-2.7,34.5-8.1,3.6-.9,24.8-6.7,36.5-24.9,7.2-11.3,9.2-24.8,5.9-40.3a237.19,237.19,0,0,1,2.5-45.6c3.3-21.5,11.4-49.3,31.1-59.9a5.3,5.3,0,0,0-5.1-9.3c-44.3,24-39.3,112.2-39.1,115.9v.4l.1.4c9.4,42.7-32.9,52.7-34.7,53.1l-.5.1-.4.2c-19.2,7.9-34.5,9.5-44.2,4.6a18.27,18.27,0,0,1-9.4-10.8l-.3-1.2-.7-.9c-6-7.8-17.3-49.9-22.9-74.6a3.81,3.81,0,0,0-.8-1.7c-6.6-36.3,9.4-68.4,47.7-95.2C163,31.79,195.74,22.09,196,22l.6-.2c36.4-15.8,64.9-12.3,74.8-8.3l.7.2c54.9,13.9,80.1,74.9,80.3,75.5l.1.2a130.47,130.47,0,0,1,9.4,38.2c.1,1.6.3,3.2.3,4.7a4.19,4.19,0,0,0,.4,1.6,5.07,5.07,0,0,0-.2,1.3,101.43,101.43,0,0,1-3,30.5v.1c-.4,1.8-10.3,45.8,15.5,89.1l2.6,4.3C378.34,263,378.44,270.19,362.64,277.09ZM849.34,501a17.4,17.4,0,0,1-4.1,3.6,20.5,20.5,0,0,0,.7-8.5c-1.4-11.1-11-18.1-11.4-18.4a4.89,4.89,0,0,0-6.7,1.1,4.72,4.72,0,0,0,1.1,6.7c.1,0,6.7,4.9,7.5,11.9.5,3.7-.9,7.5-3.9,11.4-2.8,1.3-10.6,4.2-16.1.8a18.35,18.35,0,0,0,5.7-9.1c2.4-9-2.7-17.3-3.3-18.2a4.84,4.84,0,0,0-8.1,5.3c0,.1,3.4,5.6,2.1,10.5-.6,2.3-2.2,4.2-4.8,5.9-2.6-.4-7.1-1.6-8.9-4.7-2-3.6,0-9.1,2.1-13.2a4.83,4.83,0,0,0,.2-3.9c-.1-.3-11.3-29.5-24-58.7-21.4-49.3-30.1-60.1-34.5-63-.2-.2-.2-.4-.4-.5-13.1-11.1-11.5-34.1-11.5-34.4a5.27,5.27,0,1,0-10.5-.9c-.1,1.1-1.9,26.1,12.9,41.2l-32,92.5c-.1.3-10.4,28.9-30,28.3a4.19,4.19,0,0,0-2.2.5c-8.9,4.3-33.7,14.4-49.3,14a60.08,60.08,0,0,0,.4-7.4c0-3.6-.2-7.3-.1-10.9a24.52,24.52,0,0,1,.2-2.7c0-.5.1-1,.1-1.4a.9.9,0,0,1,.1-.5v-.2a37.72,37.72,0,0,1,1.4-5.8c.2-.6.4-1.1.6-1.7a4.88,4.88,0,0,0,.3-.7c0-.1.1-.2.1-.3a23.13,23.13,0,0,1,1.8-3.5c.5-.8,1-1.6,1.5-2.3a9.46,9.46,0,0,0,3.7.8,8.45,8.45,0,0,0,4.6-1.3c40.9-26,32.3-73.1,26.7-92.2a8.11,8.11,0,0,0-7.4-5.9,9.7,9.7,0,0,0-9.4,6.3l-.2.6L621,454.79a3.08,3.08,0,0,0-.1,1,51.28,51.28,0,0,0-6.5,11.1,43.54,43.54,0,0,0-3,12.7,83.76,83.76,0,0,0-.2,11.2c0,1.8.1,3.6,0,5.5,0,.9-.1,1.8-.1,2.7,0,.4-.1.8-.1,1.2a1.27,1.27,0,0,1-.1.6v.5a8.38,8.38,0,0,0-.2,1l-.3,1.5-.6,2.1c-4.3,10.7-15.3,15.2-32.9,13.6-2.1-2.4-5.3-7.1-5.1-11.4.1-2.7,1.6-5.1,4.4-7.4a4.84,4.84,0,0,0-6-7.6c-6.4,5-7.9,10.7-8.1,14.5-.3,5.9,2.3,11.1,4.9,14.7a17.42,17.42,0,0,1-10.9.6c-4.2-1.3-7.5-4.9-9.9-10.7-.5-2-1.6-6.8,5.2-11.5a4.81,4.81,0,0,0-5.5-7.9c-6.7,4.6-10,10.7-9.6,17.5-4.8.9-9.4.4-11.8-1.6-.7-.6-2.8-2.3-1.9-7.7.5-3.2,2.2-6.5,5.1-10.5a41.17,41.17,0,0,1,3.3-4,60.17,60.17,0,0,1,4.4-4.3c3.2-2.9,6.5-5.9,8.9-10.4a39.76,39.76,0,0,0,4.3-14.9c2-20.5-8.9-39.9-17.4-52.8-2.1-3.1-35.8-52.8-60.6-88.6a57.32,57.32,0,0,0,8.4,2.1l.8.1a4.79,4.79,0,0,0,.8-9.5,44.67,44.67,0,0,1-22.3-10.3c-3.5-5-6.5-9.3-8.9-12.5a94.91,94.91,0,0,0,15.7-7.6c15.7-9.4,25.4-21.8,28.2-36a5.3,5.3,0,0,0-10.4-2c-4.3,21.9-29.3,32.9-39.1,36.4a84.41,84.41,0,0,1-5.2-25.8,4.8,4.8,0,0,0-9.6,0,93.56,93.56,0,0,0,5.5,28.2,55.07,55.07,0,0,1-20.8-3.1,90.6,90.6,0,0,1,11.7-27.5,4.81,4.81,0,1,0-7.9-5.5,95.67,95.67,0,0,0-12.8,28.8,58.85,58.85,0,0,1-16.2-13.7c-1.9-2.6-3.7-5.3-5.4-8-5.1-8.5-10.2-26.9-10.3-27.8-.1-9.1,2.2-15.5,6.7-18.9,7.1-5.3,18.2-2.1,18.4-2.1a4.37,4.37,0,0,0,5.3-2.4l.2-.5a4.43,4.43,0,0,0-2.9-5.5c-.6-.2-15.4-4.6-26.2,3.4a21.84,21.84,0,0,0-6.4,8c-2.4-20.3.7-35.3.9-36.2a112.91,112.91,0,0,0,3.3-33.2,1.88,1.88,0,0,0-.2-.8c19-20.6,36.8-28.1,37-28.2a4.81,4.81,0,0,0,2.9-5.5l-4.2-18.5-.1-.5c-1.7-5.1-3.2-12.2-.4-17a11.59,11.59,0,0,1,7.7-5.8c10.3-2.3,26,6.2,31.3,9.8l34.8,26.9a4.59,4.59,0,0,0,2.5,1c24.4,2.4,36.1,14,39.6,18a5.38,5.38,0,0,0,1,2c.2.2,16.4,21.3,7.4,43.3a5.3,5.3,0,0,0,2.9,6.9,4.77,4.77,0,0,0,2,.4,5.18,5.18,0,0,0,4.9-3.3c6.1-15,3.2-29.1-.8-39.1a165.21,165.21,0,0,1,36.4,10.8,5.59,5.59,0,0,0,2.3,2c27.7,12.4,48.2,30.8,61.1,54.8,17.9,33.1,20.4,76.2,7.7,128.1-.8,2.4-7.8,21.6-15.3,31.7a5.87,5.87,0,0,0,4.7,9.3,5.64,5.64,0,0,0,4.6-2.3c9.1-12.1,16.7-34.1,17.1-35.1l.1-.5c13.5-54.9,10.6-100.8-8.7-136.6-11.6-21.5-28.8-38.8-51.2-51.8,42.8-9.1,82.2-10.5,117.2-3.7,29.8,5.7,50.8,16.3,63.1,24.2.8.5,15.7,12.2,21,17.1a77.86,77.86,0,0,1,14.8,18.7c8.3,14.2,14,30.5,17,48.5,4.1,25,4,48.3-.2,65.6-7.5,30.6-11.4,58.8-11.9,86.3,0,2.6-.1,5.3-.2,8.1-.5,19.2-1.1,41,9,59.3a20,20,0,0,0,4.7,6.1,55.75,55.75,0,0,0,6.7,4.8,42.57,42.57,0,0,1,7.3,5.6c2,2,4.7,5.3,5.5,9.4A20.44,20.44,0,0,1,849.34,501Zm-218-47.3,21.5-77C658.54,397.89,661.74,432.89,631.34,453.69Z"/><path class="cls-1" d="M163.34,364.19a65.76,65.76,0,0,0-17.9,16.5c-10.8,14.3-13.7,30.9-8.4,48a4.71,4.71,0,0,0,4.6,3.4,6.75,6.75,0,0,0,1.4-.2,4.85,4.85,0,0,0,3.2-6c-10.4-33.8,20.6-52.6,22-53.3a4.86,4.86,0,0,0-4.9-8.4Z"/><path class="cls-1" d="M569.54,372.19a4.8,4.8,0,0,0-4.8,4.8v95.4a4.8,4.8,0,0,0,9.6,0V377A4.87,4.87,0,0,0,569.54,372.19Z"/><path class="cls-1" d="M296.64,126c-8.2-4.6-18.5-4.1-30.6,1.4a4.83,4.83,0,0,0,4,8.8c9.1-4.2,16.5-4.8,21.8-1.8,8.5,4.7,10.2,17.2,10.2,17.4a4.85,4.85,0,0,0,4.8,4.2h.6a4.85,4.85,0,0,0,4.2-5.4C311.64,150,309.54,133.19,296.64,126Z"/><path class="cls-1" d="M348.24,245.89c-5-2.4-11.2-1.8-18.3,1.8a4.83,4.83,0,1,0,4.4,8.6c2.9-1.5,6.9-3,9.7-1.7,2.5,1.2,3.3,4.4,3.3,4.6A4.8,4.8,0,0,0,352,263l.9-.1a4.88,4.88,0,0,0,3.8-5.7C356.54,256.39,354.94,249.09,348.24,245.89Z"/><path class="cls-1" d="M485.74,183.29a106.56,106.56,0,0,0-33.9,7.4,4.79,4.79,0,0,0,3.8,8.8c.5-.2,52.7-22.6,84.8,16.2a4.5,4.5,0,0,0,3.7,1.7,5.1,5.1,0,0,0,3.1-1.1,4.87,4.87,0,0,0,.6-6.8C532.74,191.19,511.24,182.09,485.74,183.29Z"/><path class="cls-1" d="M424.84,185.59a4.51,4.51,0,0,0,2.5-.7,4.77,4.77,0,0,0,1.6-6.6c-2.7-4.4-1-9.7,2-17.8,2.2-6,4.6-12.2,3.8-18.6a4.78,4.78,0,1,0-9.5,1.1c.5,4-1.3,8.9-3.3,14.1-3.1,8.2-6.5,17.5-1.2,26.2A4.65,4.65,0,0,0,424.84,185.59Z"/><path class="cls-1" d="M443.84,215.89l-11.7.6.2-10.5c.2-11.6-14.8-11.9-15-.3-12.1-.3-12.4,14.8-.3,15l10.2.2c0,.2-.1.3-.1.4V234a4.8,4.8,0,0,0,9.6,0v-8.1l7.6-.4a4.83,4.83,0,0,0,4.6-5.1A4.88,4.88,0,0,0,443.84,215.89Z"/><path class="cls-1" d="M482.74,206.69a91.75,91.75,0,0,0-29.6-1.5,4.79,4.79,0,1,0,1.3,9.5c.5-.1,46.8-6.1,69.2,30.6a4.77,4.77,0,0,0,4.1,2.3,4.51,4.51,0,0,0,2.5-.7,4.75,4.75,0,0,0,1.6-6.6C521.34,222.79,504.24,211.19,482.74,206.69Z"/></svg>