<?xml version="1.0" encoding="utf-8"?>
<!-- Generator: Adobe Illustrator 25.2.3, SVG Export Plug-In . SVG Version: 6.00 Build 0)  -->
<svg version="1.1" id="Layer_1" xmlns="http://www.w3.org/2000/svg" xmlns:xlink="http://www.w3.org/1999/xlink" x="0px" y="0px"
	 viewBox="0 0 69.2 54.4" style="enable-background:new 0 0 69.2 54.4;" xml:space="preserve">
<style type="text/css">
	.st0{fill:#A388BF;}
</style>
<g>
	<g>
		<path class="st0" d="M29.2,16.6c1.1,1.7,1.9,3.7,2.1,5.5c0.1,0.8,0.1,1.7-0.1,2.5c-0.3,1-1.1,1.9-2.1,2c-0.7,0.1-1.5-0.1-2.1-0.4
			c-0.8-0.4-1.2-0.4-2.1-0.6c-1.2-0.2-2.6,0.4-3.6,1c-1.3,0.8-3.3,1.9-4.8,0.5c-0.4-0.3-0.6-0.8-0.9-1.2c-1.7-3.1,0-8.3,2.1-11.1
			c2.5-3.3,7.2-3.1,10-0.2C28.1,15.1,28.7,15.8,29.2,16.6z"/>
	</g>
	<g>
		<ellipse transform="matrix(0.8705 -0.4922 0.4922 0.8705 -1.9733 8.4143)" class="st0" cx="15" cy="8" rx="3.2" ry="5.1"/>
	</g>
	<g>
		
			<ellipse transform="matrix(6.725273e-02 -0.9977 0.9977 6.725273e-02 16.1315 29.4348)" class="st0" cx="23.8" cy="6.1" rx="5.1" ry="3.3"/>
	</g>
	<g>
		<ellipse transform="matrix(0.4668 -0.8844 0.8844 0.4668 -9.042 16.5005)" class="st0" cx="9.2" cy="15.7" rx="4.2" ry="5"/>
	</g>
	<g>
		<ellipse transform="matrix(0.5937 -0.8047 0.8047 0.5937 5.3448 29.7324)" class="st0" cx="32.1" cy="9.6" rx="5.5" ry="4.2"/>
	</g>
</g>
<g>
	<g>
		<path class="st0" d="M50.1,43.5c-0.1,2-0.6,4.1-1.5,5.7c-0.4,0.7-0.9,1.5-1.6,2c-0.8,0.6-2,0.9-2.9,0.4c-0.6-0.4-1.1-1-1.5-1.6
			c-0.5-0.8-0.7-1.1-1.4-1.8c-0.8-0.9-2.3-1.2-3.5-1.3c-1.6-0.1-3.8-0.3-4.2-2.4c-0.1-0.5-0.1-1,0-1.5c0.4-3.5,4.9-6.8,8.2-7.8
			c4-1.2,7.6,1.7,8.2,5.7C50.2,41.7,50.2,42.6,50.1,43.5z"/>
	</g>
	<g>
		<ellipse transform="matrix(0.112 -0.9937 0.9937 0.112 10.8137 68.4847)" class="st0" cx="43.7" cy="28.2" rx="5.1" ry="3.2"/>
	</g>
	<g>
		<ellipse transform="matrix(0.6397 -0.7686 0.7686 0.6397 -5.7591 51.4042)" class="st0" cx="52" cy="31.8" rx="5.1" ry="3.3"/>
	</g>
	<g>
		<path class="st0" d="M38.7,29.3c0.9,1.8,0.8,4.1-1.2,5.1c-2.6,1.3-5.3-1.6-5.3-4.1c0-0.9,0.3-1.9,1-2.5c0.6-0.6,1.5-0.9,2.3-0.9
			C36.9,26.9,38.1,28,38.7,29.3z"/>
	</g>
	<g>
		<ellipse transform="matrix(0.9528 -0.3035 0.3035 0.9528 -9.3282 19.0527)" class="st0" cx="56.6" cy="39.5" rx="5.5" ry="4.2"/>
	</g>
</g>
</svg>
